<?xml version="1.0" standalone="no"?>
<!DOCTYPE svg PUBLIC "-//W3C//DTD SVG 20010904//EN"
 "http://www.w3.org/TR/2001/REC-SVG-20010904/DTD/svg10.dtd">
<svg version="1.0" xmlns="http://www.w3.org/2000/svg"
 width="700.000000pt" height="700.000000pt" viewBox="0 0 700.000000 700.000000"
 preserveAspectRatio="xMidYMid meet">
<metadata>
Created by potrace 1.14, written by Peter Selinger 2001-2017
</metadata>
<g transform="translate(0.000000,700.000000) scale(0.100000,-0.100000)"
fill="#000000" stroke="none">
<path d="M3489 6988 c0 -7 -2 -20 -4 -28 -2 -8 -10 -58 -19 -110 -9 -52 -21
-115 -26 -140 -5 -25 -11 -58 -14 -75 -11 -77 -47 -269 -50 -273 -3 -2 -20 -5
-38 -7 -153 -13 -191 -17 -248 -25 -36 -6 -75 -12 -86 -14 -12 -2 -37 -7 -55
-10 -134 -22 -389 -100 -543 -165 -201 -86 -321 -151 -495 -269 -364 -245
-667 -570 -884 -948 -57 -98 -167 -327 -167 -346 0 -8 -4 -18 -9 -23 -23 -24
-122 -360 -146 -490 -31 -174 -36 -218 -50 -385 -1 -14 -3 -32 -3 -42 -2 -11
-15 -18 -44 -23 -24 -4 -54 -9 -68 -12 -14 -2 -50 -8 -80 -13 -30 -6 -68 -13
-85 -15 -190 -34 -371 -68 -374 -71 -7 -7 4 -13 34 -18 17 -3 95 -17 175 -31
80 -14 156 -27 170 -30 14 -3 39 -8 55 -10 45 -8 135 -24 175 -30 43 -7 43 -8
46 -48 6 -84 14 -174 18 -197 3 -14 10 -59 16 -100 41 -261 140 -563 268 -815
76 -148 95 -180 181 -309 344 -513 871 -913 1456 -1108 110 -36 301 -87 351
-93 11 -2 45 -8 75 -14 60 -12 100 -17 209 -27 41 -3 84 -8 95 -9 11 -1 27 -3
36 -4 12 -1 19 -18 27 -68 14 -86 40 -240 47 -273 3 -14 12 -65 21 -115 19
-111 25 -146 29 -165 2 -8 4 -21 4 -27 1 -7 5 -13 10 -13 5 0 16 44 26 97 9
54 32 181 50 283 18 102 36 205 40 230 4 25 8 46 9 48 3 3 45 7 161 17 84 7
285 38 327 51 10 3 28 7 40 9 58 11 252 70 352 107 135 51 389 177 511 254
520 330 914 806 1139 1377 70 177 136 421 161 592 3 23 7 50 9 60 2 11 7 49
10 85 3 36 8 87 11 114 3 27 6 50 8 52 1 2 32 8 67 13 82 14 118 20 150 26 14
3 36 7 50 10 14 2 52 9 85 15 33 5 74 13 90 15 17 3 53 10 80 15 28 5 66 12
85 15 73 12 57 21 -81 45 -63 11 -125 22 -139 25 -14 3 -68 12 -120 21 -93 16
-109 19 -160 28 -14 3 -43 8 -64 11 -22 3 -42 7 -44 10 -2 2 -6 26 -8 52 -8
120 -15 199 -19 213 -2 8 -6 32 -9 53 -15 96 -19 119 -42 217 -59 254 -178
561 -290 747 -10 17 -33 55 -50 85 -54 92 -162 241 -248 344 -348 413 -781
709 -1286 877 -102 34 -248 74 -300 83 -14 2 -45 9 -70 14 -77 17 -271 40
-367 44 -40 1 -42 3 -53 67 -4 30 -11 70 -15 89 -55 312 -85 480 -85 485 0 11
-20 4 -21 -7z m-207 -1153 c3 -3 -3 -47 -13 -98 -9 -50 -20 -108 -23 -127 -3
-19 -14 -84 -25 -145 -11 -60 -23 -126 -26 -145 -3 -19 -10 -57 -15 -85 -5
-27 -12 -66 -15 -85 -6 -39 -23 -132 -30 -170 -6 -30 -34 -193 -41 -240 -11
-65 -6 -69 -150 157 -61 98 -63 91 -24 -82 10 -44 28 -125 40 -180 12 -55 30
-137 41 -183 10 -46 19 -99 19 -118 0 -33 -1 -34 -22 -23 -13 7 -90 60 -173
117 -143 100 -215 151 -350 245 -189 132 -230 162 -233 169 -2 4 -8 8 -12 8
-5 0 -54 32 -110 71 -55 39 -103 69 -107 66 -3 -3 15 -34 39 -69 455 -649 648
-927 648 -933 0 -10 -90 0 -170 18 -402 93 -524 115 -484 89 6 -4 68 -43 138
-87 69 -44 126 -82 126 -85 0 -3 -46 -14 -102 -23 -113 -18 -139 -23 -213 -37
-27 -5 -61 -11 -75 -14 -68 -11 -117 -19 -135 -22 -11 -2 -33 -6 -50 -9 -16
-3 -52 -10 -80 -15 -27 -5 -65 -12 -82 -15 -48 -7 -77 -12 -198 -35 -60 -11
-132 -23 -159 -26 l-48 -6 5 28 c4 16 9 52 12 79 5 43 39 220 50 265 52 207
164 466 288 665 179 286 454 560 752 745 264 164 570 274 905 325 47 7 88 13
91 14 3 1 8 -1 11 -4z m533 -9 c48 -6 139 -22 220 -40 212 -48 468 -153 671
-275 563 -342 951 -890 1083 -1531 11 -52 22 -120 26 -150 3 -30 8 -70 12 -89
3 -21 2 -32 -4 -28 -5 3 -38 11 -74 16 -35 6 -75 13 -89 16 -28 6 -36 7 -165
29 -49 9 -101 18 -115 21 -13 2 -40 7 -60 10 -20 3 -47 8 -60 10 -14 3 -51 10
-82 15 -32 6 -84 14 -115 20 -32 5 -67 12 -78 14 -11 2 -78 14 -150 26 -71 12
-133 25 -137 29 -4 3 53 44 127 91 125 79 158 111 96 95 -14 -4 -53 -13 -86
-20 -33 -8 -152 -34 -264 -59 -198 -45 -251 -53 -264 -40 -3 4 19 43 51 88 31
44 108 155 172 246 63 91 122 175 130 187 25 36 172 245 209 298 19 28 55 78
79 113 24 35 42 66 39 69 -5 5 -71 -40 -395 -267 -59 -42 -143 -101 -187 -131
-44 -31 -155 -108 -246 -172 -92 -64 -170 -117 -173 -117 -13 0 -5 72 20 181
14 63 28 125 30 139 3 14 10 43 15 65 5 22 12 49 14 60 3 11 8 33 10 48 3 15
12 56 20 90 26 112 19 106 -85 -57 -47 -74 -88 -132 -91 -128 -4 4 -14 52 -23
107 -18 104 -39 223 -56 310 -5 28 -11 66 -14 85 -3 19 -8 45 -10 56 -2 12 -7
37 -10 55 -3 19 -15 86 -26 149 -12 63 -23 129 -25 145 -3 17 -9 53 -14 80 -6
28 -13 67 -15 87 -3 21 -6 41 -7 45 -3 17 2 22 19 19 9 -2 44 -7 77 -10z
m-2584 -2551 c19 -3 57 -10 84 -15 28 -5 64 -12 80 -15 167 -29 214 -37 235
-40 36 -6 81 -14 110 -20 14 -3 41 -7 60 -11 19 -3 55 -9 80 -14 25 -5 61 -12
80 -15 19 -2 47 -7 63 -10 15 -3 39 -7 55 -10 15 -3 73 -13 130 -22 56 -9 102
-19 102 -22 0 -4 -61 -44 -135 -91 -117 -74 -151 -100 -130 -100 3 0 138 29
300 65 277 61 355 74 355 59 0 -4 -40 -64 -89 -133 -48 -69 -105 -151 -126
-181 -135 -193 -215 -306 -222 -315 -4 -6 -27 -37 -49 -70 -23 -33 -56 -80
-73 -105 -98 -140 -132 -192 -128 -197 4 -4 189 118 242 159 6 5 69 50 142
101 73 50 238 166 367 256 129 90 238 164 243 165 20 3 10 -70 -52 -348 -36
-164 -65 -299 -65 -302 0 -20 27 16 100 131 47 74 87 135 90 135 3 0 15 -60
28 -132 12 -73 24 -144 27 -158 3 -14 8 -41 11 -60 6 -38 36 -209 59 -335 8
-44 24 -134 35 -200 12 -66 24 -136 29 -155 13 -61 8 -85 -14 -83 -310 31
-615 127 -890 281 -74 42 -254 157 -265 171 -3 3 -32 26 -65 50 -90 67 -300
283 -386 396 -215 286 -349 570 -430 915 -7 30 -14 62 -15 70 -33 221 -33 227
-14 215 4 -2 22 -7 41 -10z m4587 -57 c-14 -106 -17 -127 -42 -237 -62 -274
-189 -565 -342 -783 -92 -132 -91 -130 -190 -242 -136 -154 -281 -280 -464
-401 -95 -63 -286 -166 -370 -199 -203 -82 -415 -139 -590 -162 -95 -12 -95
-12 -94 16 1 32 14 122 19 130 2 3 6 26 10 50 5 39 22 134 40 235 3 17 17 95
31 175 14 80 27 159 30 175 3 17 9 53 14 80 5 28 16 91 25 140 22 127 21 126
58 70 162 -254 145 -230 153 -223 6 6 -17 113 -106 501 -20 87 -26 157 -14
157 5 0 634 -437 905 -629 49 -35 92 -61 96 -58 4 5 -134 207 -419 611 -31 45
-82 117 -112 161 -30 44 -78 113 -105 153 -72 103 -79 103 269 26 113 -26 212
-47 220 -49 8 -2 37 -8 64 -15 89 -20 78 -9 -91 99 -141 89 -138 86 -115 88
21 2 100 15 247 42 61 11 126 22 145 25 19 3 46 8 60 10 14 3 90 17 170 31 80
14 156 28 170 31 14 2 41 7 60 9 19 3 58 10 85 16 28 5 66 12 85 15 19 3 36 7
37 8 1 1 17 3 36 4 l34 2 -9 -62z"/>
</g>
</svg>
